<?xml version="1.0" encoding="utf-8"?>
<svg xmlns="http://www.w3.org/2000/svg" xmlns:xlink="http://www.w3.org/1999/xlink" style="margin: auto; background: rgb(241, 242, 243); display: block; z-index: 1; position: relative; shape-rendering: auto;" width="1364" height="669" preserveAspectRatio="xMidYMid" viewBox="0 0 1364 669">
<g transform="translate(682,334.5) scale(1,1) translate(-682,-334.5)"><g transform="translate(-100 39.07525128675797) rotate(0)">
  <animateTransform attributeName="transform" type="translate" keyTimes="0;1" values="-100 39.07525128675797;1464 475.5220174029865" dur="33.333333333333336s" repeatCount="indefinite" begin="-2.1024085322612094s"></animateTransform>
  <animateTransform attributeName="transform" type="rotate" keyTimes="0;1" begin="-2.1024085322612094s" values="0 50 50;56.052076500579055 50 50" dur="33.333333333333336s" repeatCount="indefinite" additive="sum"></animateTransform>
  <path d="M87.422,66.495c-2.009-0.544-4.049-0.97-6.107-1.283c10.617-11.116,15.747-27.37,13.129-42.549 c-5.236,1.77-10.223,4.252-14.824,7.313c-4.13,2.747-7.948,5.961-11.374,9.55C67.425,24.863,61.344,10.451,50.991,0 c-4.015,5.451-7.281,11.444-9.753,17.744c-3.579,9.122-5.501,18.893-5.669,28.691c-4.79-7.979-11.256-14.955-18.858-20.322 c-4.514-3.187-9.431-5.806-14.616-7.72c-3.361,16.717,2.731,35.015,15.445,46.379c0.369,0.33,0.745,0.654,1.126,0.972 c-2.359,0.411-4.689,0.983-6.969,1.714C7.582,68.775,3.634,70.61,0,72.945c8.85,9.963,23.134,14.771,36.208,12.186 c3.524-0.697,7.002-1.919,9.887-4.057c0.073-0.054,0.145-0.111,0.218-0.167c-0.987,5.662-2.714,11.136-5.104,16.221l7.509,2.806 c1.698-5.797,2.631-11.748,2.814-17.669c0.107,0.076,0.215,0.152,0.324,0.225c3.142,2.114,6.863,3.232,10.607,3.796 C76.352,88.379,91.161,82.628,100,71.71C96.061,69.427,91.816,67.684,87.422,66.495z" fill="#290908" transform="scale(0.5760476574916099)"></path>
</g><g transform="translate(988.2578042919844 -100) rotate(0)">
  <animateTransform attributeName="transform" type="translate" keyTimes="0;1" values="988.2578042919844 -100;2279.046039310234 769" dur="33.333333333333336s" repeatCount="indefinite" begin="-16.48249103233419s"></animateTransform>
  <animateTransform attributeName="transform" type="rotate" keyTimes="0;1" begin="-16.48249103233419s" values="0 50 50;877.6904977594764 50 50" dur="33.333333333333336s" repeatCount="indefinite" additive="sum"></animateTransform>
  <path d="M87.422,66.495c-2.009-0.544-4.049-0.97-6.107-1.283c10.617-11.116,15.747-27.37,13.129-42.549 c-5.236,1.77-10.223,4.252-14.824,7.313c-4.13,2.747-7.948,5.961-11.374,9.55C67.425,24.863,61.344,10.451,50.991,0 c-4.015,5.451-7.281,11.444-9.753,17.744c-3.579,9.122-5.501,18.893-5.669,28.691c-4.79-7.979-11.256-14.955-18.858-20.322 c-4.514-3.187-9.431-5.806-14.616-7.72c-3.361,16.717,2.731,35.015,15.445,46.379c0.369,0.33,0.745,0.654,1.126,0.972 c-2.359,0.411-4.689,0.983-6.969,1.714C7.582,68.775,3.634,70.61,0,72.945c8.85,9.963,23.134,14.771,36.208,12.186 c3.524-0.697,7.002-1.919,9.887-4.057c0.073-0.054,0.145-0.111,0.218-0.167c-0.987,5.662-2.714,11.136-5.104,16.221l7.509,2.806 c1.698-5.797,2.631-11.748,2.814-17.669c0.107,0.076,0.215,0.152,0.324,0.225c3.142,2.114,6.863,3.232,10.607,3.796 C76.352,88.379,91.161,82.628,100,71.71C96.061,69.427,91.816,67.684,87.422,66.495z" fill="#831a19" transform="scale(0.3628526436636768)"></path>
</g><g transform="translate(-100 67.92844714599741) rotate(0)">
  <animateTransform attributeName="transform" type="translate" keyTimes="0;1" values="-100 67.92844714599741;1938.533074589442 769" dur="33.333333333333336s" repeatCount="indefinite" begin="-0.5560325857971726s"></animateTransform>
  <animateTransform attributeName="transform" type="rotate" keyTimes="0;1" begin="-0.5560325857971726s" values="0 50 50;1015.8943775682676 50 50" dur="33.333333333333336s" repeatCount="indefinite" additive="sum"></animateTransform>
  <path d="M87.422,66.495c-2.009-0.544-4.049-0.97-6.107-1.283c10.617-11.116,15.747-27.37,13.129-42.549 c-5.236,1.77-10.223,4.252-14.824,7.313c-4.13,2.747-7.948,5.961-11.374,9.55C67.425,24.863,61.344,10.451,50.991,0 c-4.015,5.451-7.281,11.444-9.753,17.744c-3.579,9.122-5.501,18.893-5.669,28.691c-4.79-7.979-11.256-14.955-18.858-20.322 c-4.514-3.187-9.431-5.806-14.616-7.72c-3.361,16.717,2.731,35.015,15.445,46.379c0.369,0.33,0.745,0.654,1.126,0.972 c-2.359,0.411-4.689,0.983-6.969,1.714C7.582,68.775,3.634,70.61,0,72.945c8.85,9.963,23.134,14.771,36.208,12.186 c3.524-0.697,7.002-1.919,9.887-4.057c0.073-0.054,0.145-0.111,0.218-0.167c-0.987,5.662-2.714,11.136-5.104,16.221l7.509,2.806 c1.698-5.797,2.631-11.748,2.814-17.669c0.107,0.076,0.215,0.152,0.324,0.225c3.142,2.114,6.863,3.232,10.607,3.796 C76.352,88.379,91.161,82.628,100,71.71C96.061,69.427,91.816,67.684,87.422,66.495z" fill="#dd8437" transform="scale(0.7924508017748936)"></path>
</g><g transform="translate(918.943299130381 -100) rotate(0)">
  <animateTransform attributeName="transform" type="translate" keyTimes="0;1" values="918.943299130381 -100;2473.9042408090972 769" dur="33.333333333333336s" repeatCount="indefinite" begin="-26.038479240664255s"></animateTransform>
  <animateTransform attributeName="transform" type="rotate" keyTimes="0;1" begin="-26.038479240664255s" values="0 50 50;772.1638259955225 50 50" dur="33.333333333333336s" repeatCount="indefinite" additive="sum"></animateTransform>
  <path d="M87.422,66.495c-2.009-0.544-4.049-0.97-6.107-1.283c10.617-11.116,15.747-27.37,13.129-42.549 c-5.236,1.77-10.223,4.252-14.824,7.313c-4.13,2.747-7.948,5.961-11.374,9.55C67.425,24.863,61.344,10.451,50.991,0 c-4.015,5.451-7.281,11.444-9.753,17.744c-3.579,9.122-5.501,18.893-5.669,28.691c-4.79-7.979-11.256-14.955-18.858-20.322 c-4.514-3.187-9.431-5.806-14.616-7.72c-3.361,16.717,2.731,35.015,15.445,46.379c0.369,0.33,0.745,0.654,1.126,0.972 c-2.359,0.411-4.689,0.983-6.969,1.714C7.582,68.775,3.634,70.61,0,72.945c8.85,9.963,23.134,14.771,36.208,12.186 c3.524-0.697,7.002-1.919,9.887-4.057c0.073-0.054,0.145-0.111,0.218-0.167c-0.987,5.662-2.714,11.136-5.104,16.221l7.509,2.806 c1.698-5.797,2.631-11.748,2.814-17.669c0.107,0.076,0.215,0.152,0.324,0.225c3.142,2.114,6.863,3.232,10.607,3.796 C76.352,88.379,91.161,82.628,100,71.71C96.061,69.427,91.816,67.684,87.422,66.495z" fill="#dd8437" transform="scale(0.6812478407579053)"></path>
</g><g transform="translate(1342.8118843485777 -100) rotate(0)">
  <animateTransform attributeName="transform" type="translate" keyTimes="0;1" values="1342.8118843485777 -100;2679.6990781483346 769" dur="33.333333333333336s" repeatCount="indefinite" begin="-16.890930208632646s"></animateTransform>
  <animateTransform attributeName="transform" type="rotate" keyTimes="0;1" begin="-16.890930208632646s" values="0 50 50;472.9254090718762 50 50" dur="33.333333333333336s" repeatCount="indefinite" additive="sum"></animateTransform>
  <path d="M87.422,66.495c-2.009-0.544-4.049-0.97-6.107-1.283c10.617-11.116,15.747-27.37,13.129-42.549 c-5.236,1.77-10.223,4.252-14.824,7.313c-4.13,2.747-7.948,5.961-11.374,9.55C67.425,24.863,61.344,10.451,50.991,0 c-4.015,5.451-7.281,11.444-9.753,17.744c-3.579,9.122-5.501,18.893-5.669,28.691c-4.79-7.979-11.256-14.955-18.858-20.322 c-4.514-3.187-9.431-5.806-14.616-7.72c-3.361,16.717,2.731,35.015,15.445,46.379c0.369,0.33,0.745,0.654,1.126,0.972 c-2.359,0.411-4.689,0.983-6.969,1.714C7.582,68.775,3.634,70.61,0,72.945c8.85,9.963,23.134,14.771,36.208,12.186 c3.524-0.697,7.002-1.919,9.887-4.057c0.073-0.054,0.145-0.111,0.218-0.167c-0.987,5.662-2.714,11.136-5.104,16.221l7.509,2.806 c1.698-5.797,2.631-11.748,2.814-17.669c0.107,0.076,0.215,0.152,0.324,0.225c3.142,2.114,6.863,3.232,10.607,3.796 C76.352,88.379,91.161,82.628,100,71.71C96.061,69.427,91.816,67.684,87.422,66.495z" fill="#831a19" transform="scale(0.45946437036275)"></path>
</g><g transform="translate(-100 242.95104562590058) rotate(0)">
  <animateTransform attributeName="transform" type="translate" keyTimes="0;1" values="-100 242.95104562590058;1464 908.6161750170866" dur="33.333333333333336s" repeatCount="indefinite" begin="-15.099906127177762s"></animateTransform>
  <animateTransform attributeName="transform" type="rotate" keyTimes="0;1" begin="-15.099906127177762s" values="0 50 50;370.8669491747609 50 50" dur="33.333333333333336s" repeatCount="indefinite" additive="sum"></animateTransform>
  <path d="M87.422,66.495c-2.009-0.544-4.049-0.97-6.107-1.283c10.617-11.116,15.747-27.37,13.129-42.549 c-5.236,1.77-10.223,4.252-14.824,7.313c-4.13,2.747-7.948,5.961-11.374,9.55C67.425,24.863,61.344,10.451,50.991,0 c-4.015,5.451-7.281,11.444-9.753,17.744c-3.579,9.122-5.501,18.893-5.669,28.691c-4.79-7.979-11.256-14.955-18.858-20.322 c-4.514-3.187-9.431-5.806-14.616-7.72c-3.361,16.717,2.731,35.015,15.445,46.379c0.369,0.33,0.745,0.654,1.126,0.972 c-2.359,0.411-4.689,0.983-6.969,1.714C7.582,68.775,3.634,70.61,0,72.945c8.85,9.963,23.134,14.771,36.208,12.186 c3.524-0.697,7.002-1.919,9.887-4.057c0.073-0.054,0.145-0.111,0.218-0.167c-0.987,5.662-2.714,11.136-5.104,16.221l7.509,2.806 c1.698-5.797,2.631-11.748,2.814-17.669c0.107,0.076,0.215,0.152,0.324,0.225c3.142,2.114,6.863,3.232,10.607,3.796 C76.352,88.379,91.161,82.628,100,71.71C96.061,69.427,91.816,67.684,87.422,66.495z" fill="#dd8437" transform="scale(0.7964822191347359)"></path>
</g><g transform="translate(-100 307.57475567977883) rotate(0)">
  <animateTransform attributeName="transform" type="translate" keyTimes="0;1" values="-100 307.57475567977883;919.9908117265821 769" dur="33.333333333333336s" repeatCount="indefinite" begin="-1.635241451044937s"></animateTransform>
  <animateTransform attributeName="transform" type="rotate" keyTimes="0;1" begin="-1.635241451044937s" values="0 50 50;793.0567402987963 50 50" dur="33.333333333333336s" repeatCount="indefinite" additive="sum"></animateTransform>
  <path d="M87.422,66.495c-2.009-0.544-4.049-0.97-6.107-1.283c10.617-11.116,15.747-27.37,13.129-42.549 c-5.236,1.77-10.223,4.252-14.824,7.313c-4.13,2.747-7.948,5.961-11.374,9.55C67.425,24.863,61.344,10.451,50.991,0 c-4.015,5.451-7.281,11.444-9.753,17.744c-3.579,9.122-5.501,18.893-5.669,28.691c-4.79-7.979-11.256-14.955-18.858-20.322 c-4.514-3.187-9.431-5.806-14.616-7.72c-3.361,16.717,2.731,35.015,15.445,46.379c0.369,0.33,0.745,0.654,1.126,0.972 c-2.359,0.411-4.689,0.983-6.969,1.714C7.582,68.775,3.634,70.61,0,72.945c8.85,9.963,23.134,14.771,36.208,12.186 c3.524-0.697,7.002-1.919,9.887-4.057c0.073-0.054,0.145-0.111,0.218-0.167c-0.987,5.662-2.714,11.136-5.104,16.221l7.509,2.806 c1.698-5.797,2.631-11.748,2.814-17.669c0.107,0.076,0.215,0.152,0.324,0.225c3.142,2.114,6.863,3.232,10.607,3.796 C76.352,88.379,91.161,82.628,100,71.71C96.061,69.427,91.816,67.684,87.422,66.495z" fill="#290908" transform="scale(0.5010355481127334)"></path>
</g><g transform="translate(572.7018742592093 -100) rotate(0)">
  <animateTransform attributeName="transform" type="translate" keyTimes="0;1" values="572.7018742592093 -100;1464 265.9785257360726" dur="33.333333333333336s" repeatCount="indefinite" begin="-6.478469049912924s"></animateTransform>
  <animateTransform attributeName="transform" type="rotate" keyTimes="0;1" begin="-6.478469049912924s" values="0 50 50;633.0252064187126 50 50" dur="33.333333333333336s" repeatCount="indefinite" additive="sum"></animateTransform>
  <path d="M87.422,66.495c-2.009-0.544-4.049-0.97-6.107-1.283c10.617-11.116,15.747-27.37,13.129-42.549 c-5.236,1.77-10.223,4.252-14.824,7.313c-4.13,2.747-7.948,5.961-11.374,9.55C67.425,24.863,61.344,10.451,50.991,0 c-4.015,5.451-7.281,11.444-9.753,17.744c-3.579,9.122-5.501,18.893-5.669,28.691c-4.79-7.979-11.256-14.955-18.858-20.322 c-4.514-3.187-9.431-5.806-14.616-7.72c-3.361,16.717,2.731,35.015,15.445,46.379c0.369,0.33,0.745,0.654,1.126,0.972 c-2.359,0.411-4.689,0.983-6.969,1.714C7.582,68.775,3.634,70.61,0,72.945c8.85,9.963,23.134,14.771,36.208,12.186 c3.524-0.697,7.002-1.919,9.887-4.057c0.073-0.054,0.145-0.111,0.218-0.167c-0.987,5.662-2.714,11.136-5.104,16.221l7.509,2.806 c1.698-5.797,2.631-11.748,2.814-17.669c0.107,0.076,0.215,0.152,0.324,0.225c3.142,2.114,6.863,3.232,10.607,3.796 C76.352,88.379,91.161,82.628,100,71.71C96.061,69.427,91.816,67.684,87.422,66.495z" fill="#eeb440" transform="scale(0.7082497131419743)"></path>
</g><g transform="translate(922.0623717188103 -100) rotate(0)">
  <animateTransform attributeName="transform" type="translate" keyTimes="0;1" values="922.0623717188103 -100;1464 839.0222779526365" dur="33.333333333333336s" repeatCount="indefinite" begin="-6.969360316126628s"></animateTransform>
  <animateTransform attributeName="transform" type="rotate" keyTimes="0;1" begin="-6.969360316126628s" values="0 50 50;434.08979679477426 50 50" dur="33.333333333333336s" repeatCount="indefinite" additive="sum"></animateTransform>
  <path d="M87.422,66.495c-2.009-0.544-4.049-0.97-6.107-1.283c10.617-11.116,15.747-27.37,13.129-42.549 c-5.236,1.77-10.223,4.252-14.824,7.313c-4.13,2.747-7.948,5.961-11.374,9.55C67.425,24.863,61.344,10.451,50.991,0 c-4.015,5.451-7.281,11.444-9.753,17.744c-3.579,9.122-5.501,18.893-5.669,28.691c-4.79-7.979-11.256-14.955-18.858-20.322 c-4.514-3.187-9.431-5.806-14.616-7.72c-3.361,16.717,2.731,35.015,15.445,46.379c0.369,0.33,0.745,0.654,1.126,0.972 c-2.359,0.411-4.689,0.983-6.969,1.714C7.582,68.775,3.634,70.61,0,72.945c8.85,9.963,23.134,14.771,36.208,12.186 c3.524-0.697,7.002-1.919,9.887-4.057c0.073-0.054,0.145-0.111,0.218-0.167c-0.987,5.662-2.714,11.136-5.104,16.221l7.509,2.806 c1.698-5.797,2.631-11.748,2.814-17.669c0.107,0.076,0.215,0.152,0.324,0.225c3.142,2.114,6.863,3.232,10.607,3.796 C76.352,88.379,91.161,82.628,100,71.71C96.061,69.427,91.816,67.684,87.422,66.495z" fill="#d8cea7" transform="scale(0.660184148284523)"></path>
</g><g transform="translate(-100 265.03957818795084) rotate(0)">
  <animateTransform attributeName="transform" type="translate" keyTimes="0;1" values="-100 265.03957818795084;1464 1051.0344894244022" dur="33.333333333333336s" repeatCount="indefinite" begin="-31.020215724007723s"></animateTransform>
  <animateTransform attributeName="transform" type="rotate" keyTimes="0;1" begin="-31.020215724007723s" values="0 50 50;519.5223833865268 50 50" dur="33.333333333333336s" repeatCount="indefinite" additive="sum"></animateTransform>
  <path d="M87.422,66.495c-2.009-0.544-4.049-0.97-6.107-1.283c10.617-11.116,15.747-27.37,13.129-42.549 c-5.236,1.77-10.223,4.252-14.824,7.313c-4.13,2.747-7.948,5.961-11.374,9.55C67.425,24.863,61.344,10.451,50.991,0 c-4.015,5.451-7.281,11.444-9.753,17.744c-3.579,9.122-5.501,18.893-5.669,28.691c-4.79-7.979-11.256-14.955-18.858-20.322 c-4.514-3.187-9.431-5.806-14.616-7.72c-3.361,16.717,2.731,35.015,15.445,46.379c0.369,0.33,0.745,0.654,1.126,0.972 c-2.359,0.411-4.689,0.983-6.969,1.714C7.582,68.775,3.634,70.61,0,72.945c8.85,9.963,23.134,14.771,36.208,12.186 c3.524-0.697,7.002-1.919,9.887-4.057c0.073-0.054,0.145-0.111,0.218-0.167c-0.987,5.662-2.714,11.136-5.104,16.221l7.509,2.806 c1.698-5.797,2.631-11.748,2.814-17.669c0.107,0.076,0.215,0.152,0.324,0.225c3.142,2.114,6.863,3.232,10.607,3.796 C76.352,88.379,91.161,82.628,100,71.71C96.061,69.427,91.816,67.684,87.422,66.495z" fill="#c24229" transform="scale(0.5730807819855023)"></path>
</g><g transform="translate(-100 168.07174373883282) rotate(0)">
  <animateTransform attributeName="transform" type="translate" keyTimes="0;1" values="-100 168.07174373883282;1464 759.0698850069552" dur="33.333333333333336s" repeatCount="indefinite" begin="-14.71645505138141s"></animateTransform>
  <animateTransform attributeName="transform" type="rotate" keyTimes="0;1" begin="-14.71645505138141s" values="0 50 50;310.15171136991614 50 50" dur="33.333333333333336s" repeatCount="indefinite" additive="sum"></animateTransform>
  <path d="M87.422,66.495c-2.009-0.544-4.049-0.97-6.107-1.283c10.617-11.116,15.747-27.37,13.129-42.549 c-5.236,1.77-10.223,4.252-14.824,7.313c-4.13,2.747-7.948,5.961-11.374,9.55C67.425,24.863,61.344,10.451,50.991,0 c-4.015,5.451-7.281,11.444-9.753,17.744c-3.579,9.122-5.501,18.893-5.669,28.691c-4.79-7.979-11.256-14.955-18.858-20.322 c-4.514-3.187-9.431-5.806-14.616-7.72c-3.361,16.717,2.731,35.015,15.445,46.379c0.369,0.33,0.745,0.654,1.126,0.972 c-2.359,0.411-4.689,0.983-6.969,1.714C7.582,68.775,3.634,70.61,0,72.945c8.85,9.963,23.134,14.771,36.208,12.186 c3.524-0.697,7.002-1.919,9.887-4.057c0.073-0.054,0.145-0.111,0.218-0.167c-0.987,5.662-2.714,11.136-5.104,16.221l7.509,2.806 c1.698-5.797,2.631-11.748,2.814-17.669c0.107,0.076,0.215,0.152,0.324,0.225c3.142,2.114,6.863,3.232,10.607,3.796 C76.352,88.379,91.161,82.628,100,71.71C96.061,69.427,91.816,67.684,87.422,66.495z" fill="#290908" transform="scale(0.6680617088760804)"></path>
</g><g transform="translate(616.1445560183608 -100) rotate(0)">
  <animateTransform attributeName="transform" type="translate" keyTimes="0;1" values="616.1445560183608 -100;2303.3811799342193 769" dur="33.333333333333336s" repeatCount="indefinite" begin="-15.487109552418847s"></animateTransform>
  <animateTransform attributeName="transform" type="rotate" keyTimes="0;1" begin="-15.487109552418847s" values="0 50 50;641.2301016118726 50 50" dur="33.333333333333336s" repeatCount="indefinite" additive="sum"></animateTransform>
  <path d="M87.422,66.495c-2.009-0.544-4.049-0.97-6.107-1.283c10.617-11.116,15.747-27.37,13.129-42.549 c-5.236,1.77-10.223,4.252-14.824,7.313c-4.13,2.747-7.948,5.961-11.374,9.55C67.425,24.863,61.344,10.451,50.991,0 c-4.015,5.451-7.281,11.444-9.753,17.744c-3.579,9.122-5.501,18.893-5.669,28.691c-4.79-7.979-11.256-14.955-18.858-20.322 c-4.514-3.187-9.431-5.806-14.616-7.72c-3.361,16.717,2.731,35.015,15.445,46.379c0.369,0.33,0.745,0.654,1.126,0.972 c-2.359,0.411-4.689,0.983-6.969,1.714C7.582,68.775,3.634,70.61,0,72.945c8.85,9.963,23.134,14.771,36.208,12.186 c3.524-0.697,7.002-1.919,9.887-4.057c0.073-0.054,0.145-0.111,0.218-0.167c-0.987,5.662-2.714,11.136-5.104,16.221l7.509,2.806 c1.698-5.797,2.631-11.748,2.814-17.669c0.107,0.076,0.215,0.152,0.324,0.225c3.142,2.114,6.863,3.232,10.607,3.796 C76.352,88.379,91.161,82.628,100,71.71C96.061,69.427,91.816,67.684,87.422,66.495z" fill="#dd8437" transform="scale(0.5296923090110391)"></path>
</g><g transform="translate(-100 280.94907640426965) rotate(0)">
  <animateTransform attributeName="transform" type="translate" keyTimes="0;1" values="-100 280.94907640426965;1464 904.8346303598712" dur="33.333333333333336s" repeatCount="indefinite" begin="-17.432364116083097s"></animateTransform>
  <animateTransform attributeName="transform" type="rotate" keyTimes="0;1" begin="-17.432364116083097s" values="0 50 50;595.6301276628249 50 50" dur="33.333333333333336s" repeatCount="indefinite" additive="sum"></animateTransform>
  <path d="M87.422,66.495c-2.009-0.544-4.049-0.97-6.107-1.283c10.617-11.116,15.747-27.37,13.129-42.549 c-5.236,1.77-10.223,4.252-14.824,7.313c-4.13,2.747-7.948,5.961-11.374,9.55C67.425,24.863,61.344,10.451,50.991,0 c-4.015,5.451-7.281,11.444-9.753,17.744c-3.579,9.122-5.501,18.893-5.669,28.691c-4.79-7.979-11.256-14.955-18.858-20.322 c-4.514-3.187-9.431-5.806-14.616-7.72c-3.361,16.717,2.731,35.015,15.445,46.379c0.369,0.33,0.745,0.654,1.126,0.972 c-2.359,0.411-4.689,0.983-6.969,1.714C7.582,68.775,3.634,70.61,0,72.945c8.85,9.963,23.134,14.771,36.208,12.186 c3.524-0.697,7.002-1.919,9.887-4.057c0.073-0.054,0.145-0.111,0.218-0.167c-0.987,5.662-2.714,11.136-5.104,16.221l7.509,2.806 c1.698-5.797,2.631-11.748,2.814-17.669c0.107,0.076,0.215,0.152,0.324,0.225c3.142,2.114,6.863,3.232,10.607,3.796 C76.352,88.379,91.161,82.628,100,71.71C96.061,69.427,91.816,67.684,87.422,66.495z" fill="#290908" transform="scale(0.40922196100273267)"></path>
</g><g transform="translate(986.9878717966778 -100) rotate(0)">
  <animateTransform attributeName="transform" type="translate" keyTimes="0;1" values="986.9878717966778 -100;2196.861189644669 769" dur="33.333333333333336s" repeatCount="indefinite" begin="-29.373104911051993s"></animateTransform>
  <animateTransform attributeName="transform" type="rotate" keyTimes="0;1" begin="-29.373104911051993s" values="0 50 50;1051.868525196373 50 50" dur="33.333333333333336s" repeatCount="indefinite" additive="sum"></animateTransform>
  <path d="M87.422,66.495c-2.009-0.544-4.049-0.97-6.107-1.283c10.617-11.116,15.747-27.37,13.129-42.549 c-5.236,1.77-10.223,4.252-14.824,7.313c-4.13,2.747-7.948,5.961-11.374,9.55C67.425,24.863,61.344,10.451,50.991,0 c-4.015,5.451-7.281,11.444-9.753,17.744c-3.579,9.122-5.501,18.893-5.669,28.691c-4.79-7.979-11.256-14.955-18.858-20.322 c-4.514-3.187-9.431-5.806-14.616-7.72c-3.361,16.717,2.731,35.015,15.445,46.379c0.369,0.33,0.745,0.654,1.126,0.972 c-2.359,0.411-4.689,0.983-6.969,1.714C7.582,68.775,3.634,70.61,0,72.945c8.85,9.963,23.134,14.771,36.208,12.186 c3.524-0.697,7.002-1.919,9.887-4.057c0.073-0.054,0.145-0.111,0.218-0.167c-0.987,5.662-2.714,11.136-5.104,16.221l7.509,2.806 c1.698-5.797,2.631-11.748,2.814-17.669c0.107,0.076,0.215,0.152,0.324,0.225c3.142,2.114,6.863,3.232,10.607,3.796 C76.352,88.379,91.161,82.628,100,71.71C96.061,69.427,91.816,67.684,87.422,66.495z" fill="#c24229" transform="scale(0.8294450147464643)"></path>
</g><g transform="translate(-100 7.837878335706947) rotate(0)">
  <animateTransform attributeName="transform" type="translate" keyTimes="0;1" values="-100 7.837878335706947;1464 964.0811653673301" dur="33.333333333333336s" repeatCount="indefinite" begin="-22.160162740910277s"></animateTransform>
  <animateTransform attributeName="transform" type="rotate" keyTimes="0;1" begin="-22.160162740910277s" values="0 50 50;1062.768990273537 50 50" dur="33.333333333333336s" repeatCount="indefinite" additive="sum"></animateTransform>
  <path d="M87.422,66.495c-2.009-0.544-4.049-0.97-6.107-1.283c10.617-11.116,15.747-27.37,13.129-42.549 c-5.236,1.77-10.223,4.252-14.824,7.313c-4.13,2.747-7.948,5.961-11.374,9.55C67.425,24.863,61.344,10.451,50.991,0 c-4.015,5.451-7.281,11.444-9.753,17.744c-3.579,9.122-5.501,18.893-5.669,28.691c-4.79-7.979-11.256-14.955-18.858-20.322 c-4.514-3.187-9.431-5.806-14.616-7.72c-3.361,16.717,2.731,35.015,15.445,46.379c0.369,0.33,0.745,0.654,1.126,0.972 c-2.359,0.411-4.689,0.983-6.969,1.714C7.582,68.775,3.634,70.61,0,72.945c8.85,9.963,23.134,14.771,36.208,12.186 c3.524-0.697,7.002-1.919,9.887-4.057c0.073-0.054,0.145-0.111,0.218-0.167c-0.987,5.662-2.714,11.136-5.104,16.221l7.509,2.806 c1.698-5.797,2.631-11.748,2.814-17.669c0.107,0.076,0.215,0.152,0.324,0.225c3.142,2.114,6.863,3.232,10.607,3.796 C76.352,88.379,91.161,82.628,100,71.71C96.061,69.427,91.816,67.684,87.422,66.495z" fill="#d8cea7" transform="scale(0.7732857069785326)"></path>
</g><g transform="translate(31.001490606706888 -100) rotate(0)">
  <animateTransform attributeName="transform" type="translate" keyTimes="0;1" values="31.001490606706888 -100;1707.9184488827852 769" dur="33.333333333333336s" repeatCount="indefinite" begin="-7.26023402095067s"></animateTransform>
  <animateTransform attributeName="transform" type="rotate" keyTimes="0;1" begin="-7.26023402095067s" values="0 50 50;550.3120715325099 50 50" dur="33.333333333333336s" repeatCount="indefinite" additive="sum"></animateTransform>
  <path d="M87.422,66.495c-2.009-0.544-4.049-0.97-6.107-1.283c10.617-11.116,15.747-27.37,13.129-42.549 c-5.236,1.77-10.223,4.252-14.824,7.313c-4.13,2.747-7.948,5.961-11.374,9.55C67.425,24.863,61.344,10.451,50.991,0 c-4.015,5.451-7.281,11.444-9.753,17.744c-3.579,9.122-5.501,18.893-5.669,28.691c-4.79-7.979-11.256-14.955-18.858-20.322 c-4.514-3.187-9.431-5.806-14.616-7.72c-3.361,16.717,2.731,35.015,15.445,46.379c0.369,0.33,0.745,0.654,1.126,0.972 c-2.359,0.411-4.689,0.983-6.969,1.714C7.582,68.775,3.634,70.61,0,72.945c8.85,9.963,23.134,14.771,36.208,12.186 c3.524-0.697,7.002-1.919,9.887-4.057c0.073-0.054,0.145-0.111,0.218-0.167c-0.987,5.662-2.714,11.136-5.104,16.221l7.509,2.806 c1.698-5.797,2.631-11.748,2.814-17.669c0.107,0.076,0.215,0.152,0.324,0.225c3.142,2.114,6.863,3.232,10.607,3.796 C76.352,88.379,91.161,82.628,100,71.71C96.061,69.427,91.816,67.684,87.422,66.495z" fill="#290908" transform="scale(0.36477230958755946)"></path>
</g><g transform="translate(-100 90.45021277388487) rotate(0)">
  <animateTransform attributeName="transform" type="translate" keyTimes="0;1" values="-100 90.45021277388487;1464 631.1942681272864" dur="33.333333333333336s" repeatCount="indefinite" begin="-31.968700232920913s"></animateTransform>
  <animateTransform attributeName="transform" type="rotate" keyTimes="0;1" begin="-31.968700232920913s" values="0 50 50;598.3982261025783 50 50" dur="33.333333333333336s" repeatCount="indefinite" additive="sum"></animateTransform>
  <path d="M87.422,66.495c-2.009-0.544-4.049-0.97-6.107-1.283c10.617-11.116,15.747-27.37,13.129-42.549 c-5.236,1.77-10.223,4.252-14.824,7.313c-4.13,2.747-7.948,5.961-11.374,9.55C67.425,24.863,61.344,10.451,50.991,0 c-4.015,5.451-7.281,11.444-9.753,17.744c-3.579,9.122-5.501,18.893-5.669,28.691c-4.79-7.979-11.256-14.955-18.858-20.322 c-4.514-3.187-9.431-5.806-14.616-7.72c-3.361,16.717,2.731,35.015,15.445,46.379c0.369,0.33,0.745,0.654,1.126,0.972 c-2.359,0.411-4.689,0.983-6.969,1.714C7.582,68.775,3.634,70.61,0,72.945c8.85,9.963,23.134,14.771,36.208,12.186 c3.524-0.697,7.002-1.919,9.887-4.057c0.073-0.054,0.145-0.111,0.218-0.167c-0.987,5.662-2.714,11.136-5.104,16.221l7.509,2.806 c1.698-5.797,2.631-11.748,2.814-17.669c0.107,0.076,0.215,0.152,0.324,0.225c3.142,2.114,6.863,3.232,10.607,3.796 C76.352,88.379,91.161,82.628,100,71.71C96.061,69.427,91.816,67.684,87.422,66.495z" fill="#dd8437" transform="scale(0.6855624165945758)"></path>
</g><g transform="translate(660.2952225919441 -100) rotate(0)">
  <animateTransform attributeName="transform" type="translate" keyTimes="0;1" values="660.2952225919441 -100;1464 440.4927590455354" dur="33.333333333333336s" repeatCount="indefinite" begin="-1.951051243256319s"></animateTransform>
  <animateTransform attributeName="transform" type="rotate" keyTimes="0;1" begin="-1.951051243256319s" values="0 50 50;780.6773663928981 50 50" dur="33.333333333333336s" repeatCount="indefinite" additive="sum"></animateTransform>
  <path d="M87.422,66.495c-2.009-0.544-4.049-0.97-6.107-1.283c10.617-11.116,15.747-27.37,13.129-42.549 c-5.236,1.77-10.223,4.252-14.824,7.313c-4.13,2.747-7.948,5.961-11.374,9.55C67.425,24.863,61.344,10.451,50.991,0 c-4.015,5.451-7.281,11.444-9.753,17.744c-3.579,9.122-5.501,18.893-5.669,28.691c-4.79-7.979-11.256-14.955-18.858-20.322 c-4.514-3.187-9.431-5.806-14.616-7.72c-3.361,16.717,2.731,35.015,15.445,46.379c0.369,0.33,0.745,0.654,1.126,0.972 c-2.359,0.411-4.689,0.983-6.969,1.714C7.582,68.775,3.634,70.61,0,72.945c8.85,9.963,23.134,14.771,36.208,12.186 c3.524-0.697,7.002-1.919,9.887-4.057c0.073-0.054,0.145-0.111,0.218-0.167c-0.987,5.662-2.714,11.136-5.104,16.221l7.509,2.806 c1.698-5.797,2.631-11.748,2.814-17.669c0.107,0.076,0.215,0.152,0.324,0.225c3.142,2.114,6.863,3.232,10.607,3.796 C76.352,88.379,91.161,82.628,100,71.71C96.061,69.427,91.816,67.684,87.422,66.495z" fill="#831a19" transform="scale(0.6764829619684558)"></path>
</g><g transform="translate(1333.696618076082 -100) rotate(0)">
  <animateTransform attributeName="transform" type="translate" keyTimes="0;1" values="1333.696618076082 -100;2782.785729018832 769" dur="33.333333333333336s" repeatCount="indefinite" begin="-2.8625690779662856s"></animateTransform>
  <animateTransform attributeName="transform" type="rotate" keyTimes="0;1" begin="-2.8625690779662856s" values="0 50 50;398.9212103935037 50 50" dur="33.333333333333336s" repeatCount="indefinite" additive="sum"></animateTransform>
  <path d="M87.422,66.495c-2.009-0.544-4.049-0.97-6.107-1.283c10.617-11.116,15.747-27.37,13.129-42.549 c-5.236,1.77-10.223,4.252-14.824,7.313c-4.13,2.747-7.948,5.961-11.374,9.55C67.425,24.863,61.344,10.451,50.991,0 c-4.015,5.451-7.281,11.444-9.753,17.744c-3.579,9.122-5.501,18.893-5.669,28.691c-4.79-7.979-11.256-14.955-18.858-20.322 c-4.514-3.187-9.431-5.806-14.616-7.72c-3.361,16.717,2.731,35.015,15.445,46.379c0.369,0.33,0.745,0.654,1.126,0.972 c-2.359,0.411-4.689,0.983-6.969,1.714C7.582,68.775,3.634,70.61,0,72.945c8.85,9.963,23.134,14.771,36.208,12.186 c3.524-0.697,7.002-1.919,9.887-4.057c0.073-0.054,0.145-0.111,0.218-0.167c-0.987,5.662-2.714,11.136-5.104,16.221l7.509,2.806 c1.698-5.797,2.631-11.748,2.814-17.669c0.107,0.076,0.215,0.152,0.324,0.225c3.142,2.114,6.863,3.232,10.607,3.796 C76.352,88.379,91.161,82.628,100,71.71C96.061,69.427,91.816,67.684,87.422,66.495z" fill="#eeb440" transform="scale(0.5781488813586043)"></path>
</g><g transform="translate(-100 257.45478467950585) rotate(0)">
  <animateTransform attributeName="transform" type="translate" keyTimes="0;1" values="-100 257.45478467950585;795.2302557552416 769" dur="33.333333333333336s" repeatCount="indefinite" begin="-5.340308156245481s"></animateTransform>
  <animateTransform attributeName="transform" type="rotate" keyTimes="0;1" begin="-5.340308156245481s" values="0 50 50;860.059231718933 50 50" dur="33.333333333333336s" repeatCount="indefinite" additive="sum"></animateTransform>
  <path d="M87.422,66.495c-2.009-0.544-4.049-0.97-6.107-1.283c10.617-11.116,15.747-27.37,13.129-42.549 c-5.236,1.77-10.223,4.252-14.824,7.313c-4.13,2.747-7.948,5.961-11.374,9.55C67.425,24.863,61.344,10.451,50.991,0 c-4.015,5.451-7.281,11.444-9.753,17.744c-3.579,9.122-5.501,18.893-5.669,28.691c-4.79-7.979-11.256-14.955-18.858-20.322 c-4.514-3.187-9.431-5.806-14.616-7.72c-3.361,16.717,2.731,35.015,15.445,46.379c0.369,0.33,0.745,0.654,1.126,0.972 c-2.359,0.411-4.689,0.983-6.969,1.714C7.582,68.775,3.634,70.61,0,72.945c8.85,9.963,23.134,14.771,36.208,12.186 c3.524-0.697,7.002-1.919,9.887-4.057c0.073-0.054,0.145-0.111,0.218-0.167c-0.987,5.662-2.714,11.136-5.104,16.221l7.509,2.806 c1.698-5.797,2.631-11.748,2.814-17.669c0.107,0.076,0.215,0.152,0.324,0.225c3.142,2.114,6.863,3.232,10.607,3.796 C76.352,88.379,91.161,82.628,100,71.71C96.061,69.427,91.816,67.684,87.422,66.495z" fill="#290908" transform="scale(0.5698241025759587)"></path>
</g><g transform="translate(927.6974975294456 -100) rotate(0)">
  <animateTransform attributeName="transform" type="translate" keyTimes="0;1" values="927.6974975294456 -100;1464 375.86389894311577" dur="33.333333333333336s" repeatCount="indefinite" begin="-3.3441888720928463s"></animateTransform>
  <animateTransform attributeName="transform" type="rotate" keyTimes="0;1" begin="-3.3441888720928463s" values="0 50 50;945.6610466181555 50 50" dur="33.333333333333336s" repeatCount="indefinite" additive="sum"></animateTransform>
  <path d="M87.422,66.495c-2.009-0.544-4.049-0.97-6.107-1.283c10.617-11.116,15.747-27.37,13.129-42.549 c-5.236,1.77-10.223,4.252-14.824,7.313c-4.13,2.747-7.948,5.961-11.374,9.55C67.425,24.863,61.344,10.451,50.991,0 c-4.015,5.451-7.281,11.444-9.753,17.744c-3.579,9.122-5.501,18.893-5.669,28.691c-4.79-7.979-11.256-14.955-18.858-20.322 c-4.514-3.187-9.431-5.806-14.616-7.72c-3.361,16.717,2.731,35.015,15.445,46.379c0.369,0.33,0.745,0.654,1.126,0.972 c-2.359,0.411-4.689,0.983-6.969,1.714C7.582,68.775,3.634,70.61,0,72.945c8.85,9.963,23.134,14.771,36.208,12.186 c3.524-0.697,7.002-1.919,9.887-4.057c0.073-0.054,0.145-0.111,0.218-0.167c-0.987,5.662-2.714,11.136-5.104,16.221l7.509,2.806 c1.698-5.797,2.631-11.748,2.814-17.669c0.107,0.076,0.215,0.152,0.324,0.225c3.142,2.114,6.863,3.232,10.607,3.796 C76.352,88.379,91.161,82.628,100,71.71C96.061,69.427,91.816,67.684,87.422,66.495z" fill="#831a19" transform="scale(0.5213203519876913)"></path>
</g><g transform="translate(405.279929904818 -100) rotate(0)">
  <animateTransform attributeName="transform" type="translate" keyTimes="0;1" values="405.279929904818 -100;2309.7665831528493 769" dur="33.333333333333336s" repeatCount="indefinite" begin="-14.35002458795034s"></animateTransform>
  <animateTransform attributeName="transform" type="rotate" keyTimes="0;1" begin="-14.35002458795034s" values="0 50 50;641.2440001121357 50 50" dur="33.333333333333336s" repeatCount="indefinite" additive="sum"></animateTransform>
  <path d="M87.422,66.495c-2.009-0.544-4.049-0.97-6.107-1.283c10.617-11.116,15.747-27.37,13.129-42.549 c-5.236,1.77-10.223,4.252-14.824,7.313c-4.13,2.747-7.948,5.961-11.374,9.55C67.425,24.863,61.344,10.451,50.991,0 c-4.015,5.451-7.281,11.444-9.753,17.744c-3.579,9.122-5.501,18.893-5.669,28.691c-4.79-7.979-11.256-14.955-18.858-20.322 c-4.514-3.187-9.431-5.806-14.616-7.72c-3.361,16.717,2.731,35.015,15.445,46.379c0.369,0.33,0.745,0.654,1.126,0.972 c-2.359,0.411-4.689,0.983-6.969,1.714C7.582,68.775,3.634,70.61,0,72.945c8.85,9.963,23.134,14.771,36.208,12.186 c3.524-0.697,7.002-1.919,9.887-4.057c0.073-0.054,0.145-0.111,0.218-0.167c-0.987,5.662-2.714,11.136-5.104,16.221l7.509,2.806 c1.698-5.797,2.631-11.748,2.814-17.669c0.107,0.076,0.215,0.152,0.324,0.225c3.142,2.114,6.863,3.232,10.607,3.796 C76.352,88.379,91.161,82.628,100,71.71C96.061,69.427,91.816,67.684,87.422,66.495z" fill="#d8cea7" transform="scale(0.40369258699258437)"></path>
</g><g transform="translate(-100 294.43405849889484) rotate(0)">
  <animateTransform attributeName="transform" type="translate" keyTimes="0;1" values="-100 294.43405849889484;1091.2471763221522 769" dur="33.333333333333336s" repeatCount="indefinite" begin="-14.13481699077508s"></animateTransform>
  <animateTransform attributeName="transform" type="rotate" keyTimes="0;1" begin="-14.13481699077508s" values="0 50 50;608.2539497061892 50 50" dur="33.333333333333336s" repeatCount="indefinite" additive="sum"></animateTransform>
  <path d="M87.422,66.495c-2.009-0.544-4.049-0.97-6.107-1.283c10.617-11.116,15.747-27.37,13.129-42.549 c-5.236,1.77-10.223,4.252-14.824,7.313c-4.13,2.747-7.948,5.961-11.374,9.55C67.425,24.863,61.344,10.451,50.991,0 c-4.015,5.451-7.281,11.444-9.753,17.744c-3.579,9.122-5.501,18.893-5.669,28.691c-4.79-7.979-11.256-14.955-18.858-20.322 c-4.514-3.187-9.431-5.806-14.616-7.72c-3.361,16.717,2.731,35.015,15.445,46.379c0.369,0.33,0.745,0.654,1.126,0.972 c-2.359,0.411-4.689,0.983-6.969,1.714C7.582,68.775,3.634,70.61,0,72.945c8.85,9.963,23.134,14.771,36.208,12.186 c3.524-0.697,7.002-1.919,9.887-4.057c0.073-0.054,0.145-0.111,0.218-0.167c-0.987,5.662-2.714,11.136-5.104,16.221l7.509,2.806 c1.698-5.797,2.631-11.748,2.814-17.669c0.107,0.076,0.215,0.152,0.324,0.225c3.142,2.114,6.863,3.232,10.607,3.796 C76.352,88.379,91.161,82.628,100,71.71C96.061,69.427,91.816,67.684,87.422,66.495z" fill="#491212" transform="scale(0.7612822813554408)"></path>
</g><g transform="translate(1029.5949747373554 -100) rotate(0)">
  <animateTransform attributeName="transform" type="translate" keyTimes="0;1" values="1029.5949747373554 -100;1464 530.8484324507594" dur="33.333333333333336s" repeatCount="indefinite" begin="-19.129292074483427s"></animateTransform>
  <animateTransform attributeName="transform" type="rotate" keyTimes="0;1" begin="-19.129292074483427s" values="0 50 50;235.29291524624594 50 50" dur="33.333333333333336s" repeatCount="indefinite" additive="sum"></animateTransform>
  <path d="M87.422,66.495c-2.009-0.544-4.049-0.97-6.107-1.283c10.617-11.116,15.747-27.37,13.129-42.549 c-5.236,1.77-10.223,4.252-14.824,7.313c-4.13,2.747-7.948,5.961-11.374,9.55C67.425,24.863,61.344,10.451,50.991,0 c-4.015,5.451-7.281,11.444-9.753,17.744c-3.579,9.122-5.501,18.893-5.669,28.691c-4.79-7.979-11.256-14.955-18.858-20.322 c-4.514-3.187-9.431-5.806-14.616-7.72c-3.361,16.717,2.731,35.015,15.445,46.379c0.369,0.33,0.745,0.654,1.126,0.972 c-2.359,0.411-4.689,0.983-6.969,1.714C7.582,68.775,3.634,70.61,0,72.945c8.85,9.963,23.134,14.771,36.208,12.186 c3.524-0.697,7.002-1.919,9.887-4.057c0.073-0.054,0.145-0.111,0.218-0.167c-0.987,5.662-2.714,11.136-5.104,16.221l7.509,2.806 c1.698-5.797,2.631-11.748,2.814-17.669c0.107,0.076,0.215,0.152,0.324,0.225c3.142,2.114,6.863,3.232,10.607,3.796 C76.352,88.379,91.161,82.628,100,71.71C96.061,69.427,91.816,67.684,87.422,66.495z" fill="#290908" transform="scale(0.5343249382852132)"></path>
</g><g transform="translate(549.1841281705676 -100) rotate(0)">
  <animateTransform attributeName="transform" type="translate" keyTimes="0;1" values="549.1841281705676 -100;1464 573.0794964746044" dur="33.333333333333336s" repeatCount="indefinite" begin="-14.104878858842227s"></animateTransform>
  <animateTransform attributeName="transform" type="rotate" keyTimes="0;1" begin="-14.104878858842227s" values="0 50 50;1049.3001307747672 50 50" dur="33.333333333333336s" repeatCount="indefinite" additive="sum"></animateTransform>
  <path d="M87.422,66.495c-2.009-0.544-4.049-0.97-6.107-1.283c10.617-11.116,15.747-27.37,13.129-42.549 c-5.236,1.77-10.223,4.252-14.824,7.313c-4.13,2.747-7.948,5.961-11.374,9.55C67.425,24.863,61.344,10.451,50.991,0 c-4.015,5.451-7.281,11.444-9.753,17.744c-3.579,9.122-5.501,18.893-5.669,28.691c-4.79-7.979-11.256-14.955-18.858-20.322 c-4.514-3.187-9.431-5.806-14.616-7.72c-3.361,16.717,2.731,35.015,15.445,46.379c0.369,0.33,0.745,0.654,1.126,0.972 c-2.359,0.411-4.689,0.983-6.969,1.714C7.582,68.775,3.634,70.61,0,72.945c8.85,9.963,23.134,14.771,36.208,12.186 c3.524-0.697,7.002-1.919,9.887-4.057c0.073-0.054,0.145-0.111,0.218-0.167c-0.987,5.662-2.714,11.136-5.104,16.221l7.509,2.806 c1.698-5.797,2.631-11.748,2.814-17.669c0.107,0.076,0.215,0.152,0.324,0.225c3.142,2.114,6.863,3.232,10.607,3.796 C76.352,88.379,91.161,82.628,100,71.71C96.061,69.427,91.816,67.684,87.422,66.495z" fill="#dd8437" transform="scale(0.558479227028116)"></path>
</g><g transform="translate(42.76843551606661 -100) rotate(0)">
  <animateTransform attributeName="transform" type="translate" keyTimes="0;1" values="42.76843551606661 -100;1464 289.52079825828406" dur="33.333333333333336s" repeatCount="indefinite" begin="-28.1203674108679s"></animateTransform>
  <animateTransform attributeName="transform" type="rotate" keyTimes="0;1" begin="-28.1203674108679s" values="0 50 50;506.6599159514859 50 50" dur="33.333333333333336s" repeatCount="indefinite" additive="sum"></animateTransform>
  <path d="M87.422,66.495c-2.009-0.544-4.049-0.97-6.107-1.283c10.617-11.116,15.747-27.37,13.129-42.549 c-5.236,1.77-10.223,4.252-14.824,7.313c-4.13,2.747-7.948,5.961-11.374,9.55C67.425,24.863,61.344,10.451,50.991,0 c-4.015,5.451-7.281,11.444-9.753,17.744c-3.579,9.122-5.501,18.893-5.669,28.691c-4.79-7.979-11.256-14.955-18.858-20.322 c-4.514-3.187-9.431-5.806-14.616-7.72c-3.361,16.717,2.731,35.015,15.445,46.379c0.369,0.33,0.745,0.654,1.126,0.972 c-2.359,0.411-4.689,0.983-6.969,1.714C7.582,68.775,3.634,70.61,0,72.945c8.85,9.963,23.134,14.771,36.208,12.186 c3.524-0.697,7.002-1.919,9.887-4.057c0.073-0.054,0.145-0.111,0.218-0.167c-0.987,5.662-2.714,11.136-5.104,16.221l7.509,2.806 c1.698-5.797,2.631-11.748,2.814-17.669c0.107,0.076,0.215,0.152,0.324,0.225c3.142,2.114,6.863,3.232,10.607,3.796 C76.352,88.379,91.161,82.628,100,71.71C96.061,69.427,91.816,67.684,87.422,66.495z" fill="#c24229" transform="scale(0.6081589873793755)"></path>
</g><g transform="translate(-100 22.42173316268302) rotate(0)">
  <animateTransform attributeName="transform" type="translate" keyTimes="0;1" values="-100 22.42173316268302;1464 978.3172328929293" dur="33.333333333333336s" repeatCount="indefinite" begin="-6.765123959856912s"></animateTransform>
  <animateTransform attributeName="transform" type="rotate" keyTimes="0;1" begin="-6.765123959856912s" values="0 50 50;317.21370572681207 50 50" dur="33.333333333333336s" repeatCount="indefinite" additive="sum"></animateTransform>
  <path d="M87.422,66.495c-2.009-0.544-4.049-0.97-6.107-1.283c10.617-11.116,15.747-27.37,13.129-42.549 c-5.236,1.77-10.223,4.252-14.824,7.313c-4.13,2.747-7.948,5.961-11.374,9.55C67.425,24.863,61.344,10.451,50.991,0 c-4.015,5.451-7.281,11.444-9.753,17.744c-3.579,9.122-5.501,18.893-5.669,28.691c-4.79-7.979-11.256-14.955-18.858-20.322 c-4.514-3.187-9.431-5.806-14.616-7.72c-3.361,16.717,2.731,35.015,15.445,46.379c0.369,0.33,0.745,0.654,1.126,0.972 c-2.359,0.411-4.689,0.983-6.969,1.714C7.582,68.775,3.634,70.61,0,72.945c8.85,9.963,23.134,14.771,36.208,12.186 c3.524-0.697,7.002-1.919,9.887-4.057c0.073-0.054,0.145-0.111,0.218-0.167c-0.987,5.662-2.714,11.136-5.104,16.221l7.509,2.806 c1.698-5.797,2.631-11.748,2.814-17.669c0.107,0.076,0.215,0.152,0.324,0.225c3.142,2.114,6.863,3.232,10.607,3.796 C76.352,88.379,91.161,82.628,100,71.71C96.061,69.427,91.816,67.684,87.422,66.495z" fill="#491212" transform="scale(0.40374686845296526)"></path>
</g><g transform="translate(-100 162.15607645000173) rotate(0)">
  <animateTransform attributeName="transform" type="translate" keyTimes="0;1" values="-100 162.15607645000173;1464 1130.5323352638895" dur="33.333333333333336s" repeatCount="indefinite" begin="-30.390788044186767s"></animateTransform>
  <animateTransform attributeName="transform" type="rotate" keyTimes="0;1" begin="-30.390788044186767s" values="0 50 50;9.44868785090514 50 50" dur="33.333333333333336s" repeatCount="indefinite" additive="sum"></animateTransform>
  <path d="M87.422,66.495c-2.009-0.544-4.049-0.97-6.107-1.283c10.617-11.116,15.747-27.37,13.129-42.549 c-5.236,1.77-10.223,4.252-14.824,7.313c-4.13,2.747-7.948,5.961-11.374,9.55C67.425,24.863,61.344,10.451,50.991,0 c-4.015,5.451-7.281,11.444-9.753,17.744c-3.579,9.122-5.501,18.893-5.669,28.691c-4.79-7.979-11.256-14.955-18.858-20.322 c-4.514-3.187-9.431-5.806-14.616-7.72c-3.361,16.717,2.731,35.015,15.445,46.379c0.369,0.33,0.745,0.654,1.126,0.972 c-2.359,0.411-4.689,0.983-6.969,1.714C7.582,68.775,3.634,70.61,0,72.945c8.85,9.963,23.134,14.771,36.208,12.186 c3.524-0.697,7.002-1.919,9.887-4.057c0.073-0.054,0.145-0.111,0.218-0.167c-0.987,5.662-2.714,11.136-5.104,16.221l7.509,2.806 c1.698-5.797,2.631-11.748,2.814-17.669c0.107,0.076,0.215,0.152,0.324,0.225c3.142,2.114,6.863,3.232,10.607,3.796 C76.352,88.379,91.161,82.628,100,71.71C96.061,69.427,91.816,67.684,87.422,66.495z" fill="#491212" transform="scale(0.7507502264265496)"></path>
</g><g transform="translate(-100 309.4464544108289) rotate(0)">
  <animateTransform attributeName="transform" type="translate" keyTimes="0;1" values="-100 309.4464544108289;1464 914.271190477835" dur="33.333333333333336s" repeatCount="indefinite" begin="-16.17665448228535s"></animateTransform>
  <animateTransform attributeName="transform" type="rotate" keyTimes="0;1" begin="-16.17665448228535s" values="0 50 50;969.9115195602999 50 50" dur="33.333333333333336s" repeatCount="indefinite" additive="sum"></animateTransform>
  <path d="M87.422,66.495c-2.009-0.544-4.049-0.97-6.107-1.283c10.617-11.116,15.747-27.37,13.129-42.549 c-5.236,1.77-10.223,4.252-14.824,7.313c-4.13,2.747-7.948,5.961-11.374,9.55C67.425,24.863,61.344,10.451,50.991,0 c-4.015,5.451-7.281,11.444-9.753,17.744c-3.579,9.122-5.501,18.893-5.669,28.691c-4.79-7.979-11.256-14.955-18.858-20.322 c-4.514-3.187-9.431-5.806-14.616-7.72c-3.361,16.717,2.731,35.015,15.445,46.379c0.369,0.33,0.745,0.654,1.126,0.972 c-2.359,0.411-4.689,0.983-6.969,1.714C7.582,68.775,3.634,70.61,0,72.945c8.85,9.963,23.134,14.771,36.208,12.186 c3.524-0.697,7.002-1.919,9.887-4.057c0.073-0.054,0.145-0.111,0.218-0.167c-0.987,5.662-2.714,11.136-5.104,16.221l7.509,2.806 c1.698-5.797,2.631-11.748,2.814-17.669c0.107,0.076,0.215,0.152,0.324,0.225c3.142,2.114,6.863,3.232,10.607,3.796 C76.352,88.379,91.161,82.628,100,71.71C96.061,69.427,91.816,67.684,87.422,66.495z" fill="#c24229" transform="scale(0.8338911823454929)"></path>
</g><g transform="translate(550.9557567153389 -100) rotate(0)">
  <animateTransform attributeName="transform" type="translate" keyTimes="0;1" values="550.9557567153389 -100;2398.1101030637465 769" dur="33.333333333333336s" repeatCount="indefinite" begin="-7.528915947036375s"></animateTransform>
  <animateTransform attributeName="transform" type="rotate" keyTimes="0;1" begin="-7.528915947036375s" values="0 50 50;443.7662511995755 50 50" dur="33.333333333333336s" repeatCount="indefinite" additive="sum"></animateTransform>
  <path d="M87.422,66.495c-2.009-0.544-4.049-0.97-6.107-1.283c10.617-11.116,15.747-27.37,13.129-42.549 c-5.236,1.77-10.223,4.252-14.824,7.313c-4.13,2.747-7.948,5.961-11.374,9.55C67.425,24.863,61.344,10.451,50.991,0 c-4.015,5.451-7.281,11.444-9.753,17.744c-3.579,9.122-5.501,18.893-5.669,28.691c-4.79-7.979-11.256-14.955-18.858-20.322 c-4.514-3.187-9.431-5.806-14.616-7.72c-3.361,16.717,2.731,35.015,15.445,46.379c0.369,0.33,0.745,0.654,1.126,0.972 c-2.359,0.411-4.689,0.983-6.969,1.714C7.582,68.775,3.634,70.61,0,72.945c8.85,9.963,23.134,14.771,36.208,12.186 c3.524-0.697,7.002-1.919,9.887-4.057c0.073-0.054,0.145-0.111,0.218-0.167c-0.987,5.662-2.714,11.136-5.104,16.221l7.509,2.806 c1.698-5.797,2.631-11.748,2.814-17.669c0.107,0.076,0.215,0.152,0.324,0.225c3.142,2.114,6.863,3.232,10.607,3.796 C76.352,88.379,91.161,82.628,100,71.71C96.061,69.427,91.816,67.684,87.422,66.495z" fill="#eeb440" transform="scale(0.8032245601682259)"></path>
</g><g transform="translate(1073.917332453747 -100) rotate(0)">
  <animateTransform attributeName="transform" type="translate" keyTimes="0;1" values="1073.917332453747 -100;1464 585.5201911789325" dur="33.333333333333336s" repeatCount="indefinite" begin="-9.583293142627678s"></animateTransform>
  <animateTransform attributeName="transform" type="rotate" keyTimes="0;1" begin="-9.583293142627678s" values="0 50 50;776.1252935063605 50 50" dur="33.333333333333336s" repeatCount="indefinite" additive="sum"></animateTransform>
  <path d="M87.422,66.495c-2.009-0.544-4.049-0.97-6.107-1.283c10.617-11.116,15.747-27.37,13.129-42.549 c-5.236,1.77-10.223,4.252-14.824,7.313c-4.13,2.747-7.948,5.961-11.374,9.55C67.425,24.863,61.344,10.451,50.991,0 c-4.015,5.451-7.281,11.444-9.753,17.744c-3.579,9.122-5.501,18.893-5.669,28.691c-4.79-7.979-11.256-14.955-18.858-20.322 c-4.514-3.187-9.431-5.806-14.616-7.72c-3.361,16.717,2.731,35.015,15.445,46.379c0.369,0.33,0.745,0.654,1.126,0.972 c-2.359,0.411-4.689,0.983-6.969,1.714C7.582,68.775,3.634,70.61,0,72.945c8.85,9.963,23.134,14.771,36.208,12.186 c3.524-0.697,7.002-1.919,9.887-4.057c0.073-0.054,0.145-0.111,0.218-0.167c-0.987,5.662-2.714,11.136-5.104,16.221l7.509,2.806 c1.698-5.797,2.631-11.748,2.814-17.669c0.107,0.076,0.215,0.152,0.324,0.225c3.142,2.114,6.863,3.232,10.607,3.796 C76.352,88.379,91.161,82.628,100,71.71C96.061,69.427,91.816,67.684,87.422,66.495z" fill="#dd8437" transform="scale(0.5135818578379967)"></path>
</g><g transform="translate(-100 98.08113813685813) rotate(0)">
  <animateTransform attributeName="transform" type="translate" keyTimes="0;1" values="-100 98.08113813685813;887.3287652063294 769" dur="33.333333333333336s" repeatCount="indefinite" begin="-27.54591343576661s"></animateTransform>
  <animateTransform attributeName="transform" type="rotate" keyTimes="0;1" begin="-27.54591343576661s" values="0 50 50;92.43462382166844 50 50" dur="33.333333333333336s" repeatCount="indefinite" additive="sum"></animateTransform>
  <path d="M87.422,66.495c-2.009-0.544-4.049-0.97-6.107-1.283c10.617-11.116,15.747-27.37,13.129-42.549 c-5.236,1.77-10.223,4.252-14.824,7.313c-4.13,2.747-7.948,5.961-11.374,9.55C67.425,24.863,61.344,10.451,50.991,0 c-4.015,5.451-7.281,11.444-9.753,17.744c-3.579,9.122-5.501,18.893-5.669,28.691c-4.79-7.979-11.256-14.955-18.858-20.322 c-4.514-3.187-9.431-5.806-14.616-7.72c-3.361,16.717,2.731,35.015,15.445,46.379c0.369,0.33,0.745,0.654,1.126,0.972 c-2.359,0.411-4.689,0.983-6.969,1.714C7.582,68.775,3.634,70.61,0,72.945c8.85,9.963,23.134,14.771,36.208,12.186 c3.524-0.697,7.002-1.919,9.887-4.057c0.073-0.054,0.145-0.111,0.218-0.167c-0.987,5.662-2.714,11.136-5.104,16.221l7.509,2.806 c1.698-5.797,2.631-11.748,2.814-17.669c0.107,0.076,0.215,0.152,0.324,0.225c3.142,2.114,6.863,3.232,10.607,3.796 C76.352,88.379,91.161,82.628,100,71.71C96.061,69.427,91.816,67.684,87.422,66.495z" fill="#eeb440" transform="scale(0.7767846767355083)"></path>
</g><g transform="translate(-100 0.5719725305922255) rotate(0)">
  <animateTransform attributeName="transform" type="translate" keyTimes="0;1" values="-100 0.5719725305922255;1464 807.5892831602982" dur="33.333333333333336s" repeatCount="indefinite" begin="-31.318625030019597s"></animateTransform>
  <animateTransform attributeName="transform" type="rotate" keyTimes="0;1" begin="-31.318625030019597s" values="0 50 50;534.6789635306684 50 50" dur="33.333333333333336s" repeatCount="indefinite" additive="sum"></animateTransform>
  <path d="M87.422,66.495c-2.009-0.544-4.049-0.97-6.107-1.283c10.617-11.116,15.747-27.37,13.129-42.549 c-5.236,1.77-10.223,4.252-14.824,7.313c-4.13,2.747-7.948,5.961-11.374,9.55C67.425,24.863,61.344,10.451,50.991,0 c-4.015,5.451-7.281,11.444-9.753,17.744c-3.579,9.122-5.501,18.893-5.669,28.691c-4.79-7.979-11.256-14.955-18.858-20.322 c-4.514-3.187-9.431-5.806-14.616-7.72c-3.361,16.717,2.731,35.015,15.445,46.379c0.369,0.33,0.745,0.654,1.126,0.972 c-2.359,0.411-4.689,0.983-6.969,1.714C7.582,68.775,3.634,70.61,0,72.945c8.85,9.963,23.134,14.771,36.208,12.186 c3.524-0.697,7.002-1.919,9.887-4.057c0.073-0.054,0.145-0.111,0.218-0.167c-0.987,5.662-2.714,11.136-5.104,16.221l7.509,2.806 c1.698-5.797,2.631-11.748,2.814-17.669c0.107,0.076,0.215,0.152,0.324,0.225c3.142,2.114,6.863,3.232,10.607,3.796 C76.352,88.379,91.161,82.628,100,71.71C96.061,69.427,91.816,67.684,87.422,66.495z" fill="#dd8437" transform="scale(0.6072618526991345)"></path>
</g><g transform="translate(-100 331.9474682109346) rotate(0)">
  <animateTransform attributeName="transform" type="translate" keyTimes="0;1" values="-100 331.9474682109346;1217.9733963249842 769" dur="33.333333333333336s" repeatCount="indefinite" begin="-30.31698918845294s"></animateTransform>
  <animateTransform attributeName="transform" type="rotate" keyTimes="0;1" begin="-30.31698918845294s" values="0 50 50;52.85381693355581 50 50" dur="33.333333333333336s" repeatCount="indefinite" additive="sum"></animateTransform>
  <path d="M87.422,66.495c-2.009-0.544-4.049-0.97-6.107-1.283c10.617-11.116,15.747-27.37,13.129-42.549 c-5.236,1.77-10.223,4.252-14.824,7.313c-4.13,2.747-7.948,5.961-11.374,9.55C67.425,24.863,61.344,10.451,50.991,0 c-4.015,5.451-7.281,11.444-9.753,17.744c-3.579,9.122-5.501,18.893-5.669,28.691c-4.79-7.979-11.256-14.955-18.858-20.322 c-4.514-3.187-9.431-5.806-14.616-7.72c-3.361,16.717,2.731,35.015,15.445,46.379c0.369,0.33,0.745,0.654,1.126,0.972 c-2.359,0.411-4.689,0.983-6.969,1.714C7.582,68.775,3.634,70.61,0,72.945c8.85,9.963,23.134,14.771,36.208,12.186 c3.524-0.697,7.002-1.919,9.887-4.057c0.073-0.054,0.145-0.111,0.218-0.167c-0.987,5.662-2.714,11.136-5.104,16.221l7.509,2.806 c1.698-5.797,2.631-11.748,2.814-17.669c0.107,0.076,0.215,0.152,0.324,0.225c3.142,2.114,6.863,3.232,10.607,3.796 C76.352,88.379,91.161,82.628,100,71.71C96.061,69.427,91.816,67.684,87.422,66.495z" fill="#491212" transform="scale(0.720901172246425)"></path>
</g><g transform="translate(-100 142.65632045856233) rotate(0)">
  <animateTransform attributeName="transform" type="translate" keyTimes="0;1" values="-100 142.65632045856233;1867.9555876356558 769" dur="33.333333333333336s" repeatCount="indefinite" begin="-2.795916136647758s"></animateTransform>
  <animateTransform attributeName="transform" type="rotate" keyTimes="0;1" begin="-2.795916136647758s" values="0 50 50;708.0533532998626 50 50" dur="33.333333333333336s" repeatCount="indefinite" additive="sum"></animateTransform>
  <path d="M87.422,66.495c-2.009-0.544-4.049-0.97-6.107-1.283c10.617-11.116,15.747-27.37,13.129-42.549 c-5.236,1.77-10.223,4.252-14.824,7.313c-4.13,2.747-7.948,5.961-11.374,9.55C67.425,24.863,61.344,10.451,50.991,0 c-4.015,5.451-7.281,11.444-9.753,17.744c-3.579,9.122-5.501,18.893-5.669,28.691c-4.79-7.979-11.256-14.955-18.858-20.322 c-4.514-3.187-9.431-5.806-14.616-7.72c-3.361,16.717,2.731,35.015,15.445,46.379c0.369,0.33,0.745,0.654,1.126,0.972 c-2.359,0.411-4.689,0.983-6.969,1.714C7.582,68.775,3.634,70.61,0,72.945c8.85,9.963,23.134,14.771,36.208,12.186 c3.524-0.697,7.002-1.919,9.887-4.057c0.073-0.054,0.145-0.111,0.218-0.167c-0.987,5.662-2.714,11.136-5.104,16.221l7.509,2.806 c1.698-5.797,2.631-11.748,2.814-17.669c0.107,0.076,0.215,0.152,0.324,0.225c3.142,2.114,6.863,3.232,10.607,3.796 C76.352,88.379,91.161,82.628,100,71.71C96.061,69.427,91.816,67.684,87.422,66.495z" fill="#c24229" transform="scale(0.6801543975823037)"></path>
</g><g transform="translate(-100 265.87201976512546) rotate(0)">
  <animateTransform attributeName="transform" type="translate" keyTimes="0;1" values="-100 265.87201976512546;1464 738.4095948942604" dur="33.333333333333336s" repeatCount="indefinite" begin="-12.22351030068761s"></animateTransform>
  <animateTransform attributeName="transform" type="rotate" keyTimes="0;1" begin="-12.22351030068761s" values="0 50 50;345.374300455657 50 50" dur="33.333333333333336s" repeatCount="indefinite" additive="sum"></animateTransform>
  <path d="M87.422,66.495c-2.009-0.544-4.049-0.97-6.107-1.283c10.617-11.116,15.747-27.37,13.129-42.549 c-5.236,1.77-10.223,4.252-14.824,7.313c-4.13,2.747-7.948,5.961-11.374,9.55C67.425,24.863,61.344,10.451,50.991,0 c-4.015,5.451-7.281,11.444-9.753,17.744c-3.579,9.122-5.501,18.893-5.669,28.691c-4.79-7.979-11.256-14.955-18.858-20.322 c-4.514-3.187-9.431-5.806-14.616-7.72c-3.361,16.717,2.731,35.015,15.445,46.379c0.369,0.33,0.745,0.654,1.126,0.972 c-2.359,0.411-4.689,0.983-6.969,1.714C7.582,68.775,3.634,70.61,0,72.945c8.85,9.963,23.134,14.771,36.208,12.186 c3.524-0.697,7.002-1.919,9.887-4.057c0.073-0.054,0.145-0.111,0.218-0.167c-0.987,5.662-2.714,11.136-5.104,16.221l7.509,2.806 c1.698-5.797,2.631-11.748,2.814-17.669c0.107,0.076,0.215,0.152,0.324,0.225c3.142,2.114,6.863,3.232,10.607,3.796 C76.352,88.379,91.161,82.628,100,71.71C96.061,69.427,91.816,67.684,87.422,66.495z" fill="#c24229" transform="scale(0.41059750378272863)"></path>
</g><g transform="translate(-100 14.621147775764744) rotate(0)">
  <animateTransform attributeName="transform" type="translate" keyTimes="0;1" values="-100 14.621147775764744;1464 822.1456896167117" dur="33.333333333333336s" repeatCount="indefinite" begin="-18.044572389384484s"></animateTransform>
  <animateTransform attributeName="transform" type="rotate" keyTimes="0;1" begin="-18.044572389384484s" values="0 50 50;572.5072686931119 50 50" dur="33.333333333333336s" repeatCount="indefinite" additive="sum"></animateTransform>
  <path d="M87.422,66.495c-2.009-0.544-4.049-0.97-6.107-1.283c10.617-11.116,15.747-27.37,13.129-42.549 c-5.236,1.77-10.223,4.252-14.824,7.313c-4.13,2.747-7.948,5.961-11.374,9.55C67.425,24.863,61.344,10.451,50.991,0 c-4.015,5.451-7.281,11.444-9.753,17.744c-3.579,9.122-5.501,18.893-5.669,28.691c-4.79-7.979-11.256-14.955-18.858-20.322 c-4.514-3.187-9.431-5.806-14.616-7.72c-3.361,16.717,2.731,35.015,15.445,46.379c0.369,0.33,0.745,0.654,1.126,0.972 c-2.359,0.411-4.689,0.983-6.969,1.714C7.582,68.775,3.634,70.61,0,72.945c8.85,9.963,23.134,14.771,36.208,12.186 c3.524-0.697,7.002-1.919,9.887-4.057c0.073-0.054,0.145-0.111,0.218-0.167c-0.987,5.662-2.714,11.136-5.104,16.221l7.509,2.806 c1.698-5.797,2.631-11.748,2.814-17.669c0.107,0.076,0.215,0.152,0.324,0.225c3.142,2.114,6.863,3.232,10.607,3.796 C76.352,88.379,91.161,82.628,100,71.71C96.061,69.427,91.816,67.684,87.422,66.495z" fill="#eeb440" transform="scale(0.5270834867950811)"></path>
</g><g transform="translate(-100 159.36791992836407) rotate(0)">
  <animateTransform attributeName="transform" type="translate" keyTimes="0;1" values="-100 159.36791992836407;1609.536172224029 769" dur="33.333333333333336s" repeatCount="indefinite" begin="-25.754696361542834s"></animateTransform>
  <animateTransform attributeName="transform" type="rotate" keyTimes="0;1" begin="-25.754696361542834s" values="0 50 50;196.09572765464847 50 50" dur="33.333333333333336s" repeatCount="indefinite" additive="sum"></animateTransform>
  <path d="M87.422,66.495c-2.009-0.544-4.049-0.97-6.107-1.283c10.617-11.116,15.747-27.37,13.129-42.549 c-5.236,1.77-10.223,4.252-14.824,7.313c-4.13,2.747-7.948,5.961-11.374,9.55C67.425,24.863,61.344,10.451,50.991,0 c-4.015,5.451-7.281,11.444-9.753,17.744c-3.579,9.122-5.501,18.893-5.669,28.691c-4.79-7.979-11.256-14.955-18.858-20.322 c-4.514-3.187-9.431-5.806-14.616-7.72c-3.361,16.717,2.731,35.015,15.445,46.379c0.369,0.33,0.745,0.654,1.126,0.972 c-2.359,0.411-4.689,0.983-6.969,1.714C7.582,68.775,3.634,70.61,0,72.945c8.85,9.963,23.134,14.771,36.208,12.186 c3.524-0.697,7.002-1.919,9.887-4.057c0.073-0.054,0.145-0.111,0.218-0.167c-0.987,5.662-2.714,11.136-5.104,16.221l7.509,2.806 c1.698-5.797,2.631-11.748,2.814-17.669c0.107,0.076,0.215,0.152,0.324,0.225c3.142,2.114,6.863,3.232,10.607,3.796 C76.352,88.379,91.161,82.628,100,71.71C96.061,69.427,91.816,67.684,87.422,66.495z" fill="#dd8437" transform="scale(0.550186808281694)"></path>
</g><g transform="translate(-100 166.94689873138313) rotate(0)">
  <animateTransform attributeName="transform" type="translate" keyTimes="0;1" values="-100 166.94689873138313;657.9516332591697 769" dur="33.333333333333336s" repeatCount="indefinite" begin="-5.19565886744476s"></animateTransform>
  <animateTransform attributeName="transform" type="rotate" keyTimes="0;1" begin="-5.19565886744476s" values="0 50 50;789.3712104640487 50 50" dur="33.333333333333336s" repeatCount="indefinite" additive="sum"></animateTransform>
  <path d="M87.422,66.495c-2.009-0.544-4.049-0.97-6.107-1.283c10.617-11.116,15.747-27.37,13.129-42.549 c-5.236,1.77-10.223,4.252-14.824,7.313c-4.13,2.747-7.948,5.961-11.374,9.55C67.425,24.863,61.344,10.451,50.991,0 c-4.015,5.451-7.281,11.444-9.753,17.744c-3.579,9.122-5.501,18.893-5.669,28.691c-4.79-7.979-11.256-14.955-18.858-20.322 c-4.514-3.187-9.431-5.806-14.616-7.72c-3.361,16.717,2.731,35.015,15.445,46.379c0.369,0.33,0.745,0.654,1.126,0.972 c-2.359,0.411-4.689,0.983-6.969,1.714C7.582,68.775,3.634,70.61,0,72.945c8.85,9.963,23.134,14.771,36.208,12.186 c3.524-0.697,7.002-1.919,9.887-4.057c0.073-0.054,0.145-0.111,0.218-0.167c-0.987,5.662-2.714,11.136-5.104,16.221l7.509,2.806 c1.698-5.797,2.631-11.748,2.814-17.669c0.107,0.076,0.215,0.152,0.324,0.225c3.142,2.114,6.863,3.232,10.607,3.796 C76.352,88.379,91.161,82.628,100,71.71C96.061,69.427,91.816,67.684,87.422,66.495z" fill="#d8cea7" transform="scale(0.7223121221859455)"></path>
</g><g transform="translate(-100 270.8429592273704) rotate(0)">
  <animateTransform attributeName="transform" type="translate" keyTimes="0;1" values="-100 270.8429592273704;1464 850.5006555156319" dur="33.333333333333336s" repeatCount="indefinite" begin="-19.193353407836405s"></animateTransform>
  <animateTransform attributeName="transform" type="rotate" keyTimes="0;1" begin="-19.193353407836405s" values="0 50 50;207.50284924753686 50 50" dur="33.333333333333336s" repeatCount="indefinite" additive="sum"></animateTransform>
  <path d="M87.422,66.495c-2.009-0.544-4.049-0.97-6.107-1.283c10.617-11.116,15.747-27.37,13.129-42.549 c-5.236,1.77-10.223,4.252-14.824,7.313c-4.13,2.747-7.948,5.961-11.374,9.55C67.425,24.863,61.344,10.451,50.991,0 c-4.015,5.451-7.281,11.444-9.753,17.744c-3.579,9.122-5.501,18.893-5.669,28.691c-4.79-7.979-11.256-14.955-18.858-20.322 c-4.514-3.187-9.431-5.806-14.616-7.72c-3.361,16.717,2.731,35.015,15.445,46.379c0.369,0.33,0.745,0.654,1.126,0.972 c-2.359,0.411-4.689,0.983-6.969,1.714C7.582,68.775,3.634,70.61,0,72.945c8.85,9.963,23.134,14.771,36.208,12.186 c3.524-0.697,7.002-1.919,9.887-4.057c0.073-0.054,0.145-0.111,0.218-0.167c-0.987,5.662-2.714,11.136-5.104,16.221l7.509,2.806 c1.698-5.797,2.631-11.748,2.814-17.669c0.107,0.076,0.215,0.152,0.324,0.225c3.142,2.114,6.863,3.232,10.607,3.796 C76.352,88.379,91.161,82.628,100,71.71C96.061,69.427,91.816,67.684,87.422,66.495z" fill="#eeb440" transform="scale(0.4416121355211894)"></path>
</g><g transform="translate(-100 38.01247056034523) rotate(0)">
  <animateTransform attributeName="transform" type="translate" keyTimes="0;1" values="-100 38.01247056034523;1464 960.5909180858661" dur="33.333333333333336s" repeatCount="indefinite" begin="-7.773728614922108s"></animateTransform>
  <animateTransform attributeName="transform" type="rotate" keyTimes="0;1" begin="-7.773728614922108s" values="0 50 50;316.85428931053906 50 50" dur="33.333333333333336s" repeatCount="indefinite" additive="sum"></animateTransform>
  <path d="M87.422,66.495c-2.009-0.544-4.049-0.97-6.107-1.283c10.617-11.116,15.747-27.37,13.129-42.549 c-5.236,1.77-10.223,4.252-14.824,7.313c-4.13,2.747-7.948,5.961-11.374,9.55C67.425,24.863,61.344,10.451,50.991,0 c-4.015,5.451-7.281,11.444-9.753,17.744c-3.579,9.122-5.501,18.893-5.669,28.691c-4.79-7.979-11.256-14.955-18.858-20.322 c-4.514-3.187-9.431-5.806-14.616-7.72c-3.361,16.717,2.731,35.015,15.445,46.379c0.369,0.33,0.745,0.654,1.126,0.972 c-2.359,0.411-4.689,0.983-6.969,1.714C7.582,68.775,3.634,70.61,0,72.945c8.85,9.963,23.134,14.771,36.208,12.186 c3.524-0.697,7.002-1.919,9.887-4.057c0.073-0.054,0.145-0.111,0.218-0.167c-0.987,5.662-2.714,11.136-5.104,16.221l7.509,2.806 c1.698-5.797,2.631-11.748,2.814-17.669c0.107,0.076,0.215,0.152,0.324,0.225c3.142,2.114,6.863,3.232,10.607,3.796 C76.352,88.379,91.161,82.628,100,71.71C96.061,69.427,91.816,67.684,87.422,66.495z" fill="#d8cea7" transform="scale(0.6827470872928175)"></path>
</g><g transform="translate(-100 10.115812202930066) rotate(0)">
  <animateTransform attributeName="transform" type="translate" keyTimes="0;1" values="-100 10.115812202930066;1464 619.0708953993366" dur="33.333333333333336s" repeatCount="indefinite" begin="-31.06511796013847s"></animateTransform>
  <animateTransform attributeName="transform" type="rotate" keyTimes="0;1" begin="-31.06511796013847s" values="0 50 50;121.89306588093733 50 50" dur="33.333333333333336s" repeatCount="indefinite" additive="sum"></animateTransform>
  <path d="M87.422,66.495c-2.009-0.544-4.049-0.97-6.107-1.283c10.617-11.116,15.747-27.37,13.129-42.549 c-5.236,1.77-10.223,4.252-14.824,7.313c-4.13,2.747-7.948,5.961-11.374,9.55C67.425,24.863,61.344,10.451,50.991,0 c-4.015,5.451-7.281,11.444-9.753,17.744c-3.579,9.122-5.501,18.893-5.669,28.691c-4.79-7.979-11.256-14.955-18.858-20.322 c-4.514-3.187-9.431-5.806-14.616-7.72c-3.361,16.717,2.731,35.015,15.445,46.379c0.369,0.33,0.745,0.654,1.126,0.972 c-2.359,0.411-4.689,0.983-6.969,1.714C7.582,68.775,3.634,70.61,0,72.945c8.85,9.963,23.134,14.771,36.208,12.186 c3.524-0.697,7.002-1.919,9.887-4.057c0.073-0.054,0.145-0.111,0.218-0.167c-0.987,5.662-2.714,11.136-5.104,16.221l7.509,2.806 c1.698-5.797,2.631-11.748,2.814-17.669c0.107,0.076,0.215,0.152,0.324,0.225c3.142,2.114,6.863,3.232,10.607,3.796 C76.352,88.379,91.161,82.628,100,71.71C96.061,69.427,91.816,67.684,87.422,66.495z" fill="#dd8437" transform="scale(0.4110292267019115)"></path>
</g><g transform="translate(-100 249.15083660801292) rotate(0)">
  <animateTransform attributeName="transform" type="translate" keyTimes="0;1" values="-100 249.15083660801292;1058.2294768683546 769" dur="33.333333333333336s" repeatCount="indefinite" begin="-32.88371794233512s"></animateTransform>
  <animateTransform attributeName="transform" type="rotate" keyTimes="0;1" begin="-32.88371794233512s" values="0 50 50;555.9211664084881 50 50" dur="33.333333333333336s" repeatCount="indefinite" additive="sum"></animateTransform>
  <path d="M87.422,66.495c-2.009-0.544-4.049-0.97-6.107-1.283c10.617-11.116,15.747-27.37,13.129-42.549 c-5.236,1.77-10.223,4.252-14.824,7.313c-4.13,2.747-7.948,5.961-11.374,9.55C67.425,24.863,61.344,10.451,50.991,0 c-4.015,5.451-7.281,11.444-9.753,17.744c-3.579,9.122-5.501,18.893-5.669,28.691c-4.79-7.979-11.256-14.955-18.858-20.322 c-4.514-3.187-9.431-5.806-14.616-7.72c-3.361,16.717,2.731,35.015,15.445,46.379c0.369,0.33,0.745,0.654,1.126,0.972 c-2.359,0.411-4.689,0.983-6.969,1.714C7.582,68.775,3.634,70.61,0,72.945c8.85,9.963,23.134,14.771,36.208,12.186 c3.524-0.697,7.002-1.919,9.887-4.057c0.073-0.054,0.145-0.111,0.218-0.167c-0.987,5.662-2.714,11.136-5.104,16.221l7.509,2.806 c1.698-5.797,2.631-11.748,2.814-17.669c0.107,0.076,0.215,0.152,0.324,0.225c3.142,2.114,6.863,3.232,10.607,3.796 C76.352,88.379,91.161,82.628,100,71.71C96.061,69.427,91.816,67.684,87.422,66.495z" fill="#dd8437" transform="scale(0.6006516367798368)"></path>
</g><g transform="translate(-100 66.03884838601715) rotate(0)">
  <animateTransform attributeName="transform" type="translate" keyTimes="0;1" values="-100 66.03884838601715;1338.8176895555478 769" dur="33.333333333333336s" repeatCount="indefinite" begin="-25.712870398397087s"></animateTransform>
  <animateTransform attributeName="transform" type="rotate" keyTimes="0;1" begin="-25.712870398397087s" values="0 50 50;28.278421736949166 50 50" dur="33.333333333333336s" repeatCount="indefinite" additive="sum"></animateTransform>
  <path d="M87.422,66.495c-2.009-0.544-4.049-0.97-6.107-1.283c10.617-11.116,15.747-27.37,13.129-42.549 c-5.236,1.77-10.223,4.252-14.824,7.313c-4.13,2.747-7.948,5.961-11.374,9.55C67.425,24.863,61.344,10.451,50.991,0 c-4.015,5.451-7.281,11.444-9.753,17.744c-3.579,9.122-5.501,18.893-5.669,28.691c-4.79-7.979-11.256-14.955-18.858-20.322 c-4.514-3.187-9.431-5.806-14.616-7.72c-3.361,16.717,2.731,35.015,15.445,46.379c0.369,0.33,0.745,0.654,1.126,0.972 c-2.359,0.411-4.689,0.983-6.969,1.714C7.582,68.775,3.634,70.61,0,72.945c8.85,9.963,23.134,14.771,36.208,12.186 c3.524-0.697,7.002-1.919,9.887-4.057c0.073-0.054,0.145-0.111,0.218-0.167c-0.987,5.662-2.714,11.136-5.104,16.221l7.509,2.806 c1.698-5.797,2.631-11.748,2.814-17.669c0.107,0.076,0.215,0.152,0.324,0.225c3.142,2.114,6.863,3.232,10.607,3.796 C76.352,88.379,91.161,82.628,100,71.71C96.061,69.427,91.816,67.684,87.422,66.495z" fill="#831a19" transform="scale(0.5821602912698455)"></path>
</g><g transform="translate(302.21427432942636 -100) rotate(0)">
  <animateTransform attributeName="transform" type="translate" keyTimes="0;1" values="302.21427432942636 -100;1464 640.4154195021513" dur="33.333333333333336s" repeatCount="indefinite" begin="-13.505024982729445s"></animateTransform>
  <animateTransform attributeName="transform" type="rotate" keyTimes="0;1" begin="-13.505024982729445s" values="0 50 50;485.81777004743486 50 50" dur="33.333333333333336s" repeatCount="indefinite" additive="sum"></animateTransform>
  <path d="M87.422,66.495c-2.009-0.544-4.049-0.97-6.107-1.283c10.617-11.116,15.747-27.37,13.129-42.549 c-5.236,1.77-10.223,4.252-14.824,7.313c-4.13,2.747-7.948,5.961-11.374,9.55C67.425,24.863,61.344,10.451,50.991,0 c-4.015,5.451-7.281,11.444-9.753,17.744c-3.579,9.122-5.501,18.893-5.669,28.691c-4.79-7.979-11.256-14.955-18.858-20.322 c-4.514-3.187-9.431-5.806-14.616-7.72c-3.361,16.717,2.731,35.015,15.445,46.379c0.369,0.33,0.745,0.654,1.126,0.972 c-2.359,0.411-4.689,0.983-6.969,1.714C7.582,68.775,3.634,70.61,0,72.945c8.85,9.963,23.134,14.771,36.208,12.186 c3.524-0.697,7.002-1.919,9.887-4.057c0.073-0.054,0.145-0.111,0.218-0.167c-0.987,5.662-2.714,11.136-5.104,16.221l7.509,2.806 c1.698-5.797,2.631-11.748,2.814-17.669c0.107,0.076,0.215,0.152,0.324,0.225c3.142,2.114,6.863,3.232,10.607,3.796 C76.352,88.379,91.161,82.628,100,71.71C96.061,69.427,91.816,67.684,87.422,66.495z" fill="#c24229" transform="scale(0.731039099662295)"></path>
</g><g transform="translate(-100 304.5615378528324) rotate(0)">
  <animateTransform attributeName="transform" type="translate" keyTimes="0;1" values="-100 304.5615378528324;967.9020855499421 769" dur="33.333333333333336s" repeatCount="indefinite" begin="-8.869596789423415s"></animateTransform>
  <animateTransform attributeName="transform" type="rotate" keyTimes="0;1" begin="-8.869596789423415s" values="0 50 50;866.5214488044783 50 50" dur="33.333333333333336s" repeatCount="indefinite" additive="sum"></animateTransform>
  <path d="M87.422,66.495c-2.009-0.544-4.049-0.97-6.107-1.283c10.617-11.116,15.747-27.37,13.129-42.549 c-5.236,1.77-10.223,4.252-14.824,7.313c-4.13,2.747-7.948,5.961-11.374,9.55C67.425,24.863,61.344,10.451,50.991,0 c-4.015,5.451-7.281,11.444-9.753,17.744c-3.579,9.122-5.501,18.893-5.669,28.691c-4.79-7.979-11.256-14.955-18.858-20.322 c-4.514-3.187-9.431-5.806-14.616-7.72c-3.361,16.717,2.731,35.015,15.445,46.379c0.369,0.33,0.745,0.654,1.126,0.972 c-2.359,0.411-4.689,0.983-6.969,1.714C7.582,68.775,3.634,70.61,0,72.945c8.85,9.963,23.134,14.771,36.208,12.186 c3.524-0.697,7.002-1.919,9.887-4.057c0.073-0.054,0.145-0.111,0.218-0.167c-0.987,5.662-2.714,11.136-5.104,16.221l7.509,2.806 c1.698-5.797,2.631-11.748,2.814-17.669c0.107,0.076,0.215,0.152,0.324,0.225c3.142,2.114,6.863,3.232,10.607,3.796 C76.352,88.379,91.161,82.628,100,71.71C96.061,69.427,91.816,67.684,87.422,66.495z" fill="#c24229" transform="scale(0.6439261098007795)"></path>
</g><g transform="translate(1124.942344316645 -100) rotate(0)">
  <animateTransform attributeName="transform" type="translate" keyTimes="0;1" values="1124.942344316645 -100;2712.7985462994357 769" dur="33.333333333333336s" repeatCount="indefinite" begin="-21.85114498328334s"></animateTransform>
  <animateTransform attributeName="transform" type="rotate" keyTimes="0;1" begin="-21.85114498328334s" values="0 50 50;623.1590890596742 50 50" dur="33.333333333333336s" repeatCount="indefinite" additive="sum"></animateTransform>
  <path d="M87.422,66.495c-2.009-0.544-4.049-0.97-6.107-1.283c10.617-11.116,15.747-27.37,13.129-42.549 c-5.236,1.77-10.223,4.252-14.824,7.313c-4.13,2.747-7.948,5.961-11.374,9.55C67.425,24.863,61.344,10.451,50.991,0 c-4.015,5.451-7.281,11.444-9.753,17.744c-3.579,9.122-5.501,18.893-5.669,28.691c-4.79-7.979-11.256-14.955-18.858-20.322 c-4.514-3.187-9.431-5.806-14.616-7.72c-3.361,16.717,2.731,35.015,15.445,46.379c0.369,0.33,0.745,0.654,1.126,0.972 c-2.359,0.411-4.689,0.983-6.969,1.714C7.582,68.775,3.634,70.61,0,72.945c8.85,9.963,23.134,14.771,36.208,12.186 c3.524-0.697,7.002-1.919,9.887-4.057c0.073-0.054,0.145-0.111,0.218-0.167c-0.987,5.662-2.714,11.136-5.104,16.221l7.509,2.806 c1.698-5.797,2.631-11.748,2.814-17.669c0.107,0.076,0.215,0.152,0.324,0.225c3.142,2.114,6.863,3.232,10.607,3.796 C76.352,88.379,91.161,82.628,100,71.71C96.061,69.427,91.816,67.684,87.422,66.495z" fill="#dd8437" transform="scale(0.6077871115936568)"></path>
</g><g transform="translate(480.93017018765056 -100) rotate(0)">
  <animateTransform attributeName="transform" type="translate" keyTimes="0;1" values="480.93017018765056 -100;1464 836.3376640112625" dur="33.333333333333336s" repeatCount="indefinite" begin="-16.701907790174555s"></animateTransform>
  <animateTransform attributeName="transform" type="rotate" keyTimes="0;1" begin="-16.701907790174555s" values="0 50 50;118.90956125878587 50 50" dur="33.333333333333336s" repeatCount="indefinite" additive="sum"></animateTransform>
  <path d="M87.422,66.495c-2.009-0.544-4.049-0.97-6.107-1.283c10.617-11.116,15.747-27.37,13.129-42.549 c-5.236,1.77-10.223,4.252-14.824,7.313c-4.13,2.747-7.948,5.961-11.374,9.55C67.425,24.863,61.344,10.451,50.991,0 c-4.015,5.451-7.281,11.444-9.753,17.744c-3.579,9.122-5.501,18.893-5.669,28.691c-4.79-7.979-11.256-14.955-18.858-20.322 c-4.514-3.187-9.431-5.806-14.616-7.72c-3.361,16.717,2.731,35.015,15.445,46.379c0.369,0.33,0.745,0.654,1.126,0.972 c-2.359,0.411-4.689,0.983-6.969,1.714C7.582,68.775,3.634,70.61,0,72.945c8.85,9.963,23.134,14.771,36.208,12.186 c3.524-0.697,7.002-1.919,9.887-4.057c0.073-0.054,0.145-0.111,0.218-0.167c-0.987,5.662-2.714,11.136-5.104,16.221l7.509,2.806 c1.698-5.797,2.631-11.748,2.814-17.669c0.107,0.076,0.215,0.152,0.324,0.225c3.142,2.114,6.863,3.232,10.607,3.796 C76.352,88.379,91.161,82.628,100,71.71C96.061,69.427,91.816,67.684,87.422,66.495z" fill="#dd8437" transform="scale(0.4283411830154886)"></path>
</g></g>
</svg>